<?xml version="1.0" encoding="UTF-8"?>
<svg id="Layer_1" xmlns="http://www.w3.org/2000/svg" version="1.1" viewBox="0 0 284 37.6">
  <!-- Generator: Adobe Illustrator 30.5.1, SVG Export Plug-In . SVG Version: 2.1.4 Build 3)  -->
  <defs>
    <style>
      .st0 {
        fill: #929292;
      }

      .st1 {
        fill: #929292;
      }
    </style>
  </defs>
  <path class="st1" d="M167.8,15.4h-8.3v2.7h8.3v-2.7Z"/>
  <path class="st1" d="M88,10.8c-4.1,0-7.1,3-7.1,7.4s2.9,7.4,7.1,7.4,7.1-3,7.1-7.4-2.9-7.4-7.1-7.4ZM88,22.9c-2.2,0-3.7-1.8-3.7-4.7s1.5-4.7,3.7-4.7,3.7,1.7,3.7,4.7-1.5,4.7-3.7,4.7Z"/>
  <path class="st1" d="M113,13.4c-.6-1.4-2.1-2.6-4.4-2.6-3.4,0-6.3,3-6.3,7.2s2.6,7.2,6.4,7.2,3.3-.7,4.3-2.1v2c0,2.9-1.6,4-3.6,4s-3.3-1.5-3.6-2.9l-3.4.8c.5,2.9,3.3,4.6,6.7,4.6s7.2-2.6,7.2-7.2v-13.4h-3.2v2.2s0,0,0,0ZM109.3,22.5c-2.1,0-3.7-1.5-3.7-4.5s1.7-4.5,3.7-4.5,3.6,1.5,3.6,4.5-1.2,4.5-3.6,4.5Z"/>
  <path class="st1" d="M139.7,22.8c-1.2,0-1.8-.6-1.8-1.8v-7.3h4.7v-2.5h-4.7v-4.6h-2.3c0,2.9-1.2,4.7-3.6,4.9v2.2h2.6v7.9c0,2.7,1.5,4.1,4.5,4.1s2.9-.5,3.8-1.3l-.8-2.5c-.5.5-1.3,1-2.4,1h0Z"/>
  <path class="st1" d="M71.3,22.4c-3.4,0-5.7-2.6-5.7-6.8s2.4-6.7,5.7-6.7,4.6,1.8,5.4,4.5l2.9-1.9c-1.2-3.6-4.3-5.8-8.4-5.8s-9.3,4.1-9.3,9.9,4.1,9.9,9.4,9.9,7.2-2.2,8.4-5.7l-2.9-1.8c-.6,2.7-2.8,4.4-5.6,4.4h0Z"/>
  <path class="st1" d="M100.3,6.2h-3.3v19.1h3.3V6.2Z"/>
  <path class="st1" d="M131.2,23.2c-.6,0-.7-.3-.7-1v-6c0-3.4-2.3-5.4-5.7-5.4s-5.3,1.5-6,4l2.5,1.6c.5-1.8,1.8-2.9,3.5-2.9s2.5,1,2.5,2.7v.4c-7.4.8-9,2.5-9,5.4s1.7,3.7,4.2,3.7,4.1-1.3,4.8-3.4c-.2,2.2.9,3.4,2.6,3.4s1.8-.3,2.4-.9l-.5-1.7c-.2.1-.4.2-.6.2h0ZM127.3,19c0,2.5-1.8,4.1-3.7,4.1s-1.9-.8-1.9-1.8c0-1.6,1.5-2.2,5.6-2.8v.4Z"/>
  <path class="st1" d="M248.3,6.2h-3.3v19.1h3.3V6.2Z"/>
  <path class="st1" d="M203.5,6.2h-3.3v19.1h3.3V6.2Z"/>
  <path class="st1" d="M267,11.2l-3.7,10-3.6-10h-3.6l5.7,14.1h3.1l5.7-14.1h-3.5Z"/>
  <path class="st1" d="M235.9,10.8c-4.1,0-7.1,3-7.1,7.4s2.9,7.4,7.1,7.4,7.1-3,7.1-7.4-2.9-7.4-7.1-7.4ZM235.9,22.9c-2.2,0-3.7-1.8-3.7-4.7s1.5-4.7,3.7-4.7,3.7,1.7,3.7,4.7-1.5,4.7-3.7,4.7Z"/>
  <path class="st1" d="M197.6,23.2c-.6,0-.7-.3-.7-1v-6c0-3.4-2.3-5.4-5.7-5.4s-5.3,1.5-6,4l2.5,1.6c.5-1.8,1.8-2.9,3.5-2.9s2.5,1,2.5,2.7v.4c-7.4.8-9,2.5-9,5.4s1.7,3.7,4.2,3.7,4.1-1.3,4.8-3.4c-.2,2.2.9,3.4,2.6,3.4s1.8-.3,2.4-.9l-.5-1.7c-.2.1-.4.2-.6.2h0ZM193.7,19c0,2.5-1.8,4.1-3.7,4.1s-1.9-.8-1.9-1.8c0-1.6,1.5-2.2,5.6-2.8v.4Z"/>
  <path class="st1" d="M150.4,10.8c-4,0-6.9,2.8-6.9,7.4s2.9,7.4,7,7.4,5.2-1.4,6.2-3.6l-2.4-1.6c-.7,1.7-2.1,2.6-3.8,2.6s-3.6-1.5-3.9-4h10.5c.4-6-3.2-8.1-6.8-8.1h0ZM146.8,16.6c.4-2.1,1.8-3.2,3.6-3.2s3.2,1,3.4,3.2h-7Z"/>
  <path class="st1" d="M277.2,10.8c-4,0-6.9,2.8-6.9,7.4s2.9,7.4,7,7.4,5.2-1.4,6.2-3.6l-2.4-1.6c-.7,1.7-2.1,2.6-3.8,2.6s-3.6-1.5-3.9-4h10.5c.4-6-3.2-8.1-6.8-8.1h0ZM273.6,16.6c.4-2.1,1.8-3.2,3.6-3.2s3.2,1,3.4,3.2h-7Z"/>
  <path class="st1" d="M252.9,5.8c-1.2,0-2.1.8-2.1,2.1s.9,2.1,2.1,2.1,2.1-.9,2.1-2.1-.8-2.1-2.1-2.1Z"/>
  <path class="st1" d="M254.5,11.2h-3.3v14.1h3.3v-14.1Z"/>
  <path class="st1" d="M178.1,6.2h-8.2v19.1h3.5v-6.7h4.7c3.9,0,6.4-2.6,6.4-6.2,0-3.6-2.5-6.2-6.4-6.2h0ZM177.9,15.4h-4.4v-6.2h4.4c1.9,0,3.1,1.2,3.1,3.1s-1.2,3.1-3.1,3.1Z"/>
  <path class="st1" d="M222.7,10.8c-2.1,0-3.8,1.2-4.5,3.3-.5-2.1-2.1-3.3-4.1-3.3s-3.6,1.1-4.3,3.1v-2.7h-3.3v14.1h3.3v-8.2c0-1.9.9-3.6,2.8-3.6s2.5,1,2.5,3v8.8h3.3v-8.2c0-1.9.9-3.6,2.8-3.6s2.5,1,2.5,3v8.8h3.3v-9.5c0-3-1.7-4.9-4.3-4.9h0Z"/>
  <path class="st0" d="M8,13l1.4-1.8c4.7,3.6,10.4,5.3,16.1,5.6L28.9,0h-13C7.2,0,0,7,0,15.7c0,8.7,7,15.8,15.7,15.8h6.9l1.9-9.7c-5.6-.7-11.3-3.4-16.6-8.8h0Z"/>
  <path class="st0" d="M38.7,0h-7.5l-3.3,16.8c6.1-.1,12.3-1.9,17.3-5.7l1.4,1.8c-6.4,6.5-13.4,9.1-19.7,9l-3.1,15.7h11.7l1.2-6.2h2.1c8.7,0,15.8-7.1,15.7-15.8,0-8.7-7.2-15.7-15.9-15.7Z"/>
</svg>