<?xml version="1.0" encoding="UTF-8"?>
<svg version="1.1" xmlns="http://www.w3.org/2000/svg" viewBox="116 115 1580 900">

<path d="M0 0 C16.83 0 33.66 0 51 0 C51 83.82 51 167.64 51 254 C34.17 254 17.34 254 0 254 C-0.33 247.07 -0.66 240.14 -1 233 C-3.97 236.96 -3.97 236.96 -7 241 C-15.32420463 250.884993 -28.22861729 256.64566461 -41 258 C-64.44875377 259.38873935 -84.90993281 254.621965 -103 239 C-121.50008762 221.60604617 -130.44586161 196.46943151 -131.3125 171.51953125 C-132.0546443 141.31025228 -127.13070357 113.09635042 -106 90 C-91.34446572 75.13877401 -72.62914543 67.77948003 -51.9375 67.625 C-43.92332279 67.67821678 -36.60268631 68.27717746 -29 71 C-28.15824219 71.26683594 -27.31648437 71.53367187 -26.44921875 71.80859375 C-15.60075504 75.60471247 -8.49524353 82.43400739 -1 91 C-0.505 45.955 -0.505 45.955 0 0 Z " fill="#929292" transform="translate(869,121)"/>
<path d="M0 0 C0.58894043 0.27150879 1.17788086 0.54301758 1.78466797 0.82275391 C21.19115256 9.85981834 34.52251348 24.83240331 42 45 C44.91511217 53.90399646 46.2940061 62.67917422 47 72 C45.81035645 72.17128418 44.62071289 72.34256836 43.39501953 72.51904297 C38.94035664 73.16116115 34.48622027 73.80687106 30.03222656 74.45361328 C28.11211885 74.73192248 26.19187361 75.00928462 24.27148438 75.28564453 C21.49571771 75.68527414 18.72047954 76.08841737 15.9453125 76.4921875 C14.67749435 76.67356766 14.67749435 76.67356766 13.38406372 76.85861206 C8.31810559 77.59972143 3.32664185 78.51324227 -1.67385864 79.61550903 C-4.154246 80.02549552 -6.49045359 80.06437582 -9 80 C-9.13535156 78.79085937 -9.27070313 77.58171875 -9.41015625 76.3359375 C-11.15937807 62.41778186 -14.11604278 49.74437411 -25.671875 40.546875 C-29.27072481 38.15569291 -32.91051762 36.38139706 -37 35 C-38.00546875 34.64292969 -39.0109375 34.28585938 -40.046875 33.91796875 C-53.1806175 30.26287316 -71.80064663 31.53612892 -84.04296875 37.4765625 C-89.95249385 40.89581216 -94.40097895 44.5655304 -97 51 C-98.82321724 58.3524512 -99.39012926 66.44892114 -95.4375 73.16015625 C-83.3682355 88.60750294 -58.65165503 90.2596962 -40.75 93.9375 C-35.8320391 94.95219216 -30.91537503 95.97285516 -26 97 C-25.00291016 97.20737793 -24.00582031 97.41475586 -22.97851562 97.62841797 C2.862154 103.08841871 28.48443834 111.98496548 44.9375 133.875 C55.62748481 150.30107422 57.58304686 171.68108725 54.3125 190.6953125 C50.52959139 208.55951257 40.25197428 223.88819385 25 234 C-7.15297507 253.51754772 -51.72391185 257.56928751 -88 249 C-88.71752441 248.83371094 -89.43504883 248.66742188 -90.17431641 248.49609375 C-113.95976968 242.76593771 -136.59993324 229.58402869 -149.87451172 208.59716797 C-156.93263079 196.774422 -162.10038171 182.08044906 -162.02783203 168.2902832 C-162.02381378 167.29962357 -162.01979553 166.30896393 -162.01565552 165.2882843 C-162.0104892 164.53315048 -162.00532288 163.77801666 -162 163 C-155.63285039 162.28018193 -149.26477055 161.56906548 -142.89599609 160.86376953 C-140.73301606 160.62322316 -138.57025019 160.38074236 -136.40771484 160.13623047 C-133.28538503 159.78354683 -130.16233134 159.43800652 -127.0390625 159.09375 C-125.60719101 158.92969666 -125.60719101 158.92969666 -124.14639282 158.7623291 C-118.07204674 158.10153215 -112.10882963 157.86945838 -106 158 C-105.91363281 158.85980469 -105.82726562 159.71960938 -105.73828125 160.60546875 C-104.0561405 174.75705651 -99.74883701 189.40942271 -88.08984375 198.59375 C-71.9299293 209.46771112 -52.58528044 211.43057379 -33.76196289 207.81762695 C-22.32951707 205.33325237 -12.85824718 202.02947011 -6 192 C-2.00894259 184.85733268 -1.20929222 177.0426277 -2 169 C-3.76805566 162.77985237 -7.63357979 158.4668943 -13 155 C-25.28586353 148.5050703 -40.41451757 146.62698922 -53.96505737 144.05056763 C-84.06246263 138.28732264 -115.57773402 131.34534569 -138 109 C-138.72058594 108.30261719 -139.44117188 107.60523438 -140.18359375 106.88671875 C-151.91402993 94.7571373 -155.51840137 78.22386565 -155.28344727 61.77905273 C-154.66173977 42.61873143 -147.46575931 27.43353057 -133.578125 14.18359375 C-99.37771801 -14.78311459 -39.97175071 -19.22225166 0 0 Z " fill="#929292" transform="translate(279,127)"/>
<path d="M0 0 C7.54497659 5.88615195 12.61332524 12.38186782 17.203125 20.71875 C18.193125 22.20375 18.193125 22.20375 19.203125 23.71875 C19.60402344 23.02910156 20.00492188 22.33945312 20.41796875 21.62890625 C29.19417159 7.12130564 40.83643135 -2.47745643 57.203125 -7.28125 C57.93273437 -7.50683594 58.66234375 -7.73242188 59.4140625 -7.96484375 C78.19710983 -12.74298737 101.00961335 -9.67038628 117.6484375 0.1640625 C119.62455851 1.58221993 121.4097257 3.07679331 123.203125 4.71875 C123.86570312 5.29109375 124.52828125 5.8634375 125.2109375 6.453125 C133.20660827 13.81035818 138.47119107 23.25683986 141.203125 33.71875 C141.58329521 35.05680443 141.58329521 35.05680443 141.97114563 36.42189026 C145.15174677 49.47007184 144.59090742 62.73961902 144.50730681 76.0865829 C144.48833861 79.63392176 144.48677393 83.1812712 144.48323059 86.72865295 C144.47396848 93.42184306 144.4494353 100.11488321 144.41918212 106.80800778 C144.38545448 114.43817708 144.36910632 122.06835418 144.35409582 129.69857967 C144.32287925 145.37207098 144.26794191 161.04535615 144.203125 176.71875 C127.373125 176.71875 110.543125 176.71875 93.203125 176.71875 C93.15414062 168.33984375 93.10515625 159.9609375 93.0546875 151.328125 C93.01477621 145.32766945 92.97365497 139.32723169 92.93079376 133.32679749 C92.87550603 125.56424268 92.82302307 117.80170306 92.78125 110.0390625 C92.744603 103.23088154 92.69785018 96.4228284 92.64506149 89.61475372 C92.62659569 87.02340084 92.61145923 84.43202193 92.59978104 81.84062958 C92.58278442 78.19798942 92.5537176 74.55562348 92.52197266 70.91308594 C92.51981247 69.8528421 92.51765228 68.79259827 92.51542664 67.70022583 C92.3945789 56.7735629 92.00509443 46.04632579 84.203125 37.71875 C77.66664867 31.39186009 70.8628531 31.17716186 62.2434082 31.14819336 C54.27877635 31.37344401 46.74418275 33.22565718 40.83203125 38.80859375 C28.32696574 53.47280726 29.73750168 72.44507298 29.69140625 90.48828125 C29.67453872 92.98077772 29.65638572 95.47326579 29.63700867 97.96574402 C29.58972806 104.48724747 29.55977704 111.00871684 29.53356934 117.53033447 C29.50024755 125.37590734 29.44143162 133.221354 29.38817596 141.06681061 C29.3099197 152.95077326 29.25911871 164.83456777 29.203125 176.71875 C12.373125 176.71875 -4.456875 176.71875 -21.796875 176.71875 C-21.81669434 173.10043213 -21.83651367 169.48211426 -21.85693359 165.75415039 C-21.92389474 153.78794846 -22.00143543 141.82183694 -22.08440208 129.85573673 C-22.1344382 122.60200656 -22.18088182 115.34828717 -22.21875 108.09448242 C-22.2517806 101.76910588 -22.2916722 95.44381538 -22.33966506 89.11853403 C-22.36482068 85.77201797 -22.3856098 82.42561589 -22.40021896 79.07902718 C-22.41714518 75.33519356 -22.44619641 71.59163291 -22.47802734 67.84790039 C-22.48018753 66.74881851 -22.48234772 65.64973663 -22.48457336 64.51734924 C-22.59627144 54.20666498 -23.76677266 45.65645855 -30.796875 37.71875 C-37.463547 32.42574009 -43.18268118 31.49616004 -51.484375 31.40625 C-52.35771484 31.37724609 -53.23105469 31.34824219 -54.13085938 31.31835938 C-61.6430842 31.24542515 -66.73437812 33.15479912 -72.484375 37.96875 C-82.19227431 49.51327891 -83.91891463 62.04797801 -84.00219727 76.70288086 C-84.01209686 77.78654938 -84.02199646 78.8702179 -84.03219604 79.98672485 C-84.06366823 83.55232594 -84.08851185 87.11794033 -84.11328125 90.68359375 C-84.13386311 93.16223996 -84.15485991 95.64088276 -84.17625427 98.11952209 C-84.23134763 104.63124826 -84.28081295 111.14300544 -84.32910156 117.65478516 C-84.38766244 125.47430429 -84.45441851 133.2937601 -84.51940155 141.11322784 C-84.61725074 152.98170064 -84.70621656 164.85021028 -84.796875 176.71875 C-101.626875 176.71875 -118.456875 176.71875 -135.796875 176.71875 C-135.796875 116.98875 -135.796875 57.25875 -135.796875 -4.28125 C-118.966875 -4.28125 -102.136875 -4.28125 -84.796875 -4.28125 C-84.466875 2.97875 -84.136875 10.23875 -83.796875 17.71875 C-81.816875 14.74875 -79.836875 11.77875 -77.796875 8.71875 C-58.77101639 -12.614231 -23.60231884 -15.73487923 0 0 Z " fill="#929292" transform="translate(622.796875,516.28125)"/>
<path d="M0 0 C11.47652297 10.84741125 17.10901225 24.67606118 17.69252777 40.42830086 C17.72847448 43.23006918 17.73350852 46.03028191 17.72753906 48.83227539 C17.73034126 50.42185562 17.73034126 50.42185562 17.73320007 52.04354858 C17.73718865 54.33461833 17.73927749 56.62569202 17.73966217 58.91676521 C17.74310123 63.80715302 17.76449508 68.69741066 17.78489304 73.58775234 C17.82277125 82.67725312 17.85418315 91.76661227 17.85205078 100.85620117 C17.85125967 107.19393761 17.87479562 113.53119253 17.9139328 119.86880302 C17.92433144 122.2706733 17.9259626 124.67259956 17.91828156 127.07448006 C17.87963693 140.50031712 18.53035555 151.49084233 23.6015625 163.97265625 C23.9315625 165.62265625 24.2615625 167.27265625 24.6015625 168.97265625 C7.7715625 168.97265625 -9.0584375 168.97265625 -26.3984375 168.97265625 C-28.6484375 162.22265625 -28.6484375 162.22265625 -29.03125 158.88671875 C-29.11503906 158.18417969 -29.19882813 157.48164062 -29.28515625 156.7578125 C-29.36378906 156.04496094 -29.44242188 155.33210937 -29.5234375 154.59765625 C-29.60980469 153.86160156 -29.69617187 153.12554688 -29.78515625 152.3671875 C-29.99525635 150.56966443 -30.19764517 148.77124283 -30.3984375 146.97265625 C-30.78773437 147.52953125 -31.17703125 148.08640625 -31.578125 148.66015625 C-41.2351367 161.83285424 -54.35748035 169.47958725 -70.39453125 172.5078125 C-92.2740407 175.47938131 -114.40823452 172.34258238 -132.3984375 158.97265625 C-141.59657916 151.47590496 -148.34933117 139.73774794 -149.76586914 127.90283203 C-149.89668557 124.7289822 -149.89607719 121.58592009 -149.8359375 118.41015625 C-149.84302734 117.35119141 -149.85011719 116.29222656 -149.85742188 115.20117188 C-149.75328773 102.20042429 -145.70611183 91.50403581 -136.8984375 81.84765625 C-111.35614411 57.94392508 -66.20672922 56.90317226 -33.3984375 50.97265625 C-33.36963415 48.73314875 -33.34908935 46.49353401 -33.33203125 44.25390625 C-33.31970459 43.00673828 -33.30737793 41.75957031 -33.29467773 40.47460938 C-33.48023869 34.21181794 -34.94561505 30.03703721 -39.4609375 25.66015625 C-48.38499634 18.87934963 -59.67704618 19.04654708 -70.3984375 19.97265625 C-77.54469513 21.14551533 -84.00464106 23.78094528 -88.64453125 29.51171875 C-91.42676136 34.13857761 -91.91377294 39.00825989 -92.50390625 44.265625 C-92.6355719 45.37858948 -92.6355719 45.37858948 -92.76989746 46.51403809 C-92.98436661 48.33299999 -93.19208179 50.15275605 -93.3984375 51.97265625 C-97.84185909 51.70716394 -102.28521403 51.44058702 -106.72851562 51.1730957 C-108.23338147 51.08264366 -109.73826376 50.9924648 -111.24316406 50.90258789 C-116.295445 50.60073265 -121.3471066 50.2899951 -126.3984375 49.97265625 C-127.084823 49.93033875 -127.7712085 49.88802124 -128.47839355 49.84442139 C-130.41816311 49.72354398 -132.35753228 49.59629236 -134.296875 49.46875 C-135.40466309 49.39712646 -136.51245117 49.32550293 -137.65380859 49.25170898 C-140.3984375 48.97265625 -140.3984375 48.97265625 -143.3984375 47.97265625 C-144.01369782 32.52278608 -140.86074323 17.79530906 -130.3984375 5.97265625 C-129.80160156 5.29460938 -129.20476562 4.6165625 -128.58984375 3.91796875 C-100.47652714 -26.06202683 -30.76510824 -26.00503449 0 0 Z " fill="#929292" transform="translate(1203.3984375,841.02734375)"/>
<path d="M0 0 C0.77859375 0.65613281 1.5571875 1.31226563 2.359375 1.98828125 C13.04943581 11.79946122 18.21659582 24.29979704 19.17683411 38.64103127 C19.47083391 46.20174883 19.44108695 53.76680978 19.44140625 61.33203125 C19.45319801 63.77911664 19.46656658 66.22619489 19.48143005 68.67326355 C19.51742365 75.07953354 19.53776248 81.48574016 19.55297852 87.89208984 C19.57791897 98.16116373 19.61761631 108.43009776 19.67487907 118.69904137 C19.69112999 122.27130342 19.69497763 125.84343135 19.69789124 129.41572571 C19.70767083 131.61414824 19.71793464 133.81256869 19.72875977 136.01098633 C19.72620682 136.99456619 19.72365387 137.97814606 19.72102356 138.99153137 C19.78094751 147.1192694 21.16033945 154.29864525 24.125 161.875 C25.3003516 164.88630228 26 166.74820008 26 170 C9.17 170 -7.66 170 -25 170 C-26.32 163.07 -27.64 156.14 -29 149 C-30.60875 150.85625 -32.2175 152.7125 -33.875 154.625 C-44.49546391 166.39801128 -59.73225243 173.02282951 -75.55908203 174.18847656 C-78.14718845 174.26664915 -80.72340737 174.27838812 -83.3125 174.25 C-84.69042725 174.23767334 -84.69042725 174.23767334 -86.09619141 174.22509766 C-104.65798466 173.92134141 -121.98213622 169.35803796 -135.27734375 155.65234375 C-147.15285703 141.69806279 -149.41632483 125.7276054 -148 108 C-145.98596112 96.15696899 -139.92961549 86.5899149 -130.734375 78.9375 C-107.58953372 62.53772675 -76.20150174 59.98331635 -49 55 C-47.77958008 54.77634766 -46.55916016 54.55269531 -45.30175781 54.32226562 C-40.4426447 53.46873882 -35.94768069 52.91163246 -31 53 C-31.06889426 38.64355745 -31.06889426 38.64355745 -38.0625 26.6875 C-47.19737987 19.76084522 -59.03007667 19.93930145 -70 21 C-77.11363556 22.31519541 -82.17451131 24.97484715 -86.6328125 30.734375 C-90.79606531 37.63347965 -91.29894462 45.14703361 -92 53 C-108.70037877 51.95915475 -125.36463301 50.83967588 -142 49 C-143.03088915 33.62257024 -138.86513862 18.59957275 -128.8125 6.8125 C-100.78687493 -22.74179553 -31.40048907 -26.62454055 0 0 Z " fill="#929292" transform="translate(1090,205)"/>
<path d="M0 0 C59.07 0 118.14 0 179 0 C179 14.52 179 29.04 179 44 C138.08 44 97.16 44 55 44 C55 63.47 55 82.94 55 103 C91.3 103 127.6 103 165 103 C165 117.85 165 132.7 165 148 C128.7 148 92.4 148 55 148 C55 182.98 55 217.96 55 254 C36.85 254 18.7 254 0 254 C0 170.18 0 86.36 0 0 Z " fill="#929292" transform="translate(132,756)"/>
<path d="M0 0 C21.80983444 17.15596826 29.21784891 39.69816899 34 66 C34 74.58 34 83.16 34 92 C-9.56 92 -53.12 92 -98 92 C-96.02490992 106.81317563 -94.01381003 121.267485 -81.625 130.8125 C-70.83089638 137.85832148 -56.53130807 138.62480017 -44.08984375 136.50390625 C-35.51825471 134.15897385 -27.74807857 129.6905498 -23 122 C-21.11073984 117.73794872 -19.49971037 113.41286458 -18 109 C-11.71526426 108.91183185 -5.61828228 109.21525497 0.62890625 109.875 C1.50401352 109.96378418 2.37912079 110.05256836 3.28074646 110.14404297 C6.04178308 110.42513459 8.80212866 110.71245629 11.5625 111 C13.44852532 111.19312277 15.33459273 111.38583494 17.22070312 111.578125 C21.81430195 112.04734184 26.40729235 112.52214235 31 113 C28.95160187 128.47868571 20.7679446 141.03398284 10 152 C9.31164062 152.71285156 8.62328125 153.42570313 7.9140625 154.16015625 C1.76563985 160.0914413 -5.27979404 163.58813897 -13 167 C-13.90621094 167.4021875 -14.81242188 167.804375 -15.74609375 168.21875 C-37.75008733 177.06053738 -66.5829999 177.4102989 -89 170 C-89.65983887 169.78569336 -90.31967773 169.57138672 -90.99951172 169.35058594 C-111.76017902 162.37451431 -127.64285521 148.54858904 -137.75 129.1875 C-150.57542751 102.10829111 -152.71638036 68.13376156 -142.94824219 39.65209961 C-134.94923934 17.68051252 -119.76173993 2.22432903 -99.171875 -8.46875 C-68.63013593 -22.45993773 -27.52960729 -19.20412122 0 0 Z " fill="#929292" transform="translate(460,840)"/>
<path d="M0 0 C0.89203125 0.20496094 1.7840625 0.40992188 2.703125 0.62109375 C21.41375922 5.47982296 38.49567911 18.41210308 48.34375 34.97265625 C54.59186608 46.39315144 58.65784201 57.18378476 61 70 C61.22558594 71.22332031 61.45117188 72.44664062 61.68359375 73.70703125 C63.35760689 84.36299078 63 93.92716533 63 105 C19.44 105 -24.12 105 -69 105 C-66.29289488 127.10690989 -66.29289488 127.10690989 -53.00390625 143.4609375 C-43.50289824 150.75800798 -31.4865517 150.86967146 -20 150 C-11.0895918 148.77559056 -3.22401246 145.93273938 2.74609375 138.9609375 C6.48047579 133.68996435 8.68378121 127.99594205 11 122 C22.37749434 122.40907097 33.72272629 122.96771862 45.0625 124 C45.98305176 124.0829834 46.90360352 124.1659668 47.85205078 124.25146484 C51.95615448 124.64069324 55.9764961 125.06313423 60 126 C57.0142029 143.81182407 47.09622351 158.86476583 33.3125 170.25 C9.23070231 186.84294597 -20.78023 190.58158537 -49.26269531 185.97460938 C-70.59833177 181.79856454 -89.6670171 170.95077402 -102.625 153.25 C-108.16316381 144.96159157 -112.08237871 136.27384372 -115.3125 126.875 C-115.56717041 126.14732422 -115.82184082 125.41964844 -116.08422852 124.66992188 C-119.57632258 114.05681146 -119.24084101 102.9997001 -119.25 91.9375 C-119.25067474 91.20422485 -119.25134949 90.47094971 -119.25204468 89.7154541 C-119.22878978 73.80562464 -117.73778733 59.67217624 -111 45 C-110.50757813 43.92105469 -110.01515625 42.84210938 -109.5078125 41.73046875 C-105.23907884 33.12151547 -99.76381669 26.68493836 -93 20 C-92.34257813 19.33226562 -91.68515625 18.66453125 -91.0078125 17.9765625 C-67.60574625 -4.22024712 -29.98162945 -7.56578677 0 0 Z " fill="#929292" transform="translate(1633,192)"/>
<path d="M0 0 C59.07 0 118.14 0 179 0 C179 14.52 179 29.04 179 44 C138.08 44 97.16 44 55 44 C55 63.8 55 83.6 55 104 C91.3 104 127.6 104 165 104 C165 118.52 165 133.04 165 148 C128.7 148 92.4 148 55 148 C55 182.98 55 217.96 55 254 C36.85 254 18.7 254 0 254 C0 170.18 0 86.36 0 0 Z " fill="#929292" transform="translate(132,439)"/>
<path d="M0 0 C17.16 0 34.32 0 52 0 C52.05607422 12.42527344 52.05607422 12.42527344 52.11328125 25.1015625 C52.14743836 31.04059799 52.1834364 36.97960014 52.22207737 42.9186058 C52.27179666 50.59773745 52.31727761 58.27681447 52.34643555 65.95605469 C52.372031 72.69297141 52.41304317 79.42963773 52.46318626 86.1664238 C52.47978681 88.72820653 52.49134326 91.29002739 52.49761391 93.85185623 C51.6194277 117.78928774 51.6194277 117.78928774 61 139 C67.278158 145.11294332 73.87310548 146.54271886 82.3125 146.4375 C83.15119629 146.43065186 83.98989258 146.42380371 84.85400391 146.41674805 C92.71182567 146.21325257 98.60781063 144.7137515 104.8125 139.75 C114.18771038 127.96402124 117.12203459 115.88072918 117.20532227 101.03759766 C117.21522186 99.94432159 117.22512146 98.85104553 117.23532104 97.72463989 C117.26683733 94.12113591 117.29165446 90.51761876 117.31640625 86.9140625 C117.3369843 84.4115668 117.35798099 81.90907451 117.37937927 79.40658569 C117.42888086 73.49942585 117.47416885 67.59224328 117.51740164 61.68503511 C117.5717351 54.29649823 117.63263548 46.9080179 117.69335938 39.51953125 C117.80083337 26.34639268 117.90248471 13.17321586 118 0 C125.10244999 -0.02526787 132.20488848 -0.04283201 139.30737305 -0.05493164 C141.72567172 -0.05997349 144.14396733 -0.06680678 146.56225586 -0.07543945 C150.02979283 -0.08751157 153.49728966 -0.09322963 156.96484375 -0.09765625 C158.05337143 -0.10281754 159.14189911 -0.10797882 160.26341248 -0.11329651 C161.76485558 -0.11340981 161.76485558 -0.11340981 163.29663086 -0.11352539 C164.62566689 -0.11685631 164.62566689 -0.11685631 165.98155212 -0.12025452 C168 0 168 0 169 1 C169.09762224 3.34027124 169.12997604 5.65098381 169.12025452 7.99171448 C169.12153615 9.10168058 169.12153615 9.10168058 169.12284368 10.23407024 C169.12450069 12.73232413 169.11897353 15.23051198 169.11352539 17.72875977 C169.11324354 19.51213581 169.11340121 21.29551197 169.1139679 23.07888794 C169.11425596 27.93612191 169.10835788 32.79333141 169.10139394 37.65055966 C169.09516179 42.72080948 169.09455671 47.79105981 169.09336853 52.86131287 C169.0902548 62.46963693 169.08204086 72.07794968 169.07201904 81.68626875 C169.06085919 92.62199528 169.05534778 103.55772234 169.05032361 114.49345315 C169.03985828 136.99564316 169.02151229 159.49781765 169 182 C152.5 182 136 182 119 182 C118.67 174.41 118.34 166.82 118 159 C116.02 161.97 114.04 164.94 112 168 C102.93560293 178.5147006 90.67752747 184.41918024 77 186 C57.01778772 187.21242722 38.0996831 185.68666791 22.32568359 172.16088867 C7.73470358 159.09592532 1.82173656 143.19424212 0 124 C-0.46867859 115.05398657 -0.36251827 106.09070774 -0.30418181 97.13570166 C-0.28514333 93.70849819 -0.28364358 90.28128262 -0.28010559 86.85403442 C-0.27086347 80.39468659 -0.2463586 73.93549514 -0.21605712 67.47621548 C-0.18226567 60.10957593 -0.16596559 52.74292803 -0.15097082 45.37623 C-0.11979977 30.25071916 -0.06488879 15.12541085 0 0 Z " fill="#929292" transform="translate(353,193)"/>
<path d="M0 0 C13.79028837 11.32430149 19.55258402 24.50531119 21.60516357 42.08596802 C22.61469698 52.79228529 22.24764447 63.62569764 22.20278788 74.3678329 C22.19014237 77.91518166 22.18909928 81.46253513 22.18673706 85.00990295 C22.18056236 91.70305315 22.16420686 98.3961367 22.14403808 105.08925778 C22.12155295 112.71943893 22.11065419 120.34962354 22.10064721 127.97982967 C22.07983624 143.65326476 22.04321127 159.32660823 22 175 C5.17 175 -11.66 175 -29 175 C-29.01458252 171.42768555 -29.02916504 167.85537109 -29.04418945 164.17480469 C-29.09462774 152.34430838 -29.16109123 140.51393866 -29.23571491 128.68357468 C-29.28055114 121.5139997 -29.31999331 114.34447305 -29.34643555 107.17480469 C-29.36951483 100.92078288 -29.40302214 94.66691558 -29.44870156 88.41301656 C-29.47250113 85.106068 -29.48975984 81.79930169 -29.49761391 78.49227142 C-29.50730007 74.78726265 -29.53541455 71.08280202 -29.56762695 67.37792969 C-29.56619186 66.29898438 -29.56475677 65.22003906 -29.5632782 64.10839844 C-29.68177617 54.40983906 -30.77331989 44.36999739 -37.19140625 36.6875 C-44.84923331 29.54240002 -53.26381732 28.62755168 -63.35546875 28.72265625 C-70.72527219 29.28348802 -77.92805863 31.75566757 -83.37109375 36.91015625 C-91.88888508 47.83825783 -94.29033915 59.87715879 -94.31884766 73.39477539 C-94.33391609 75.04997696 -94.33391609 75.04997696 -94.34928894 76.73861694 C-94.37999176 80.35829178 -94.39712026 83.97789309 -94.4140625 87.59765625 C-94.43278451 90.11828742 -94.45235869 92.6389124 -94.4727478 95.15953064 C-94.51874072 101.09845671 -94.55618787 107.03739705 -94.58942068 112.97640461 C-94.63827637 121.59752451 -94.7045877 130.21851365 -94.76873779 138.83953094 C-94.8568239 150.89298008 -94.92667899 162.94641128 -95 175 C-111.83 175 -128.66 175 -146 175 C-146 114.94 -146 54.88 -146 -7 C-129.5 -7 -113 -7 -96 -7 C-95.505 5.375 -95.505 5.375 -95 18 C-92.525 13.545 -92.525 13.545 -90 9 C-82.07654289 -1.23387484 -70.32015412 -7.86089403 -57.70703125 -10.5625 C-37.81544943 -12.91008395 -16.86619051 -11.87204579 0 0 Z " fill="#929292" transform="translate(697,200)"/>
<path d="M0 0 C15.1871743 11.65420626 21.06901993 25.39502472 23.78205872 43.88064194 C24.96308994 54.28854416 24.64175087 64.82887773 24.55401325 75.28750062 C24.52856902 78.84680073 24.52662446 82.40612284 24.52191162 85.96549988 C24.50960555 92.6691718 24.4769566 99.37257477 24.43651366 106.07612962 C24.39140439 113.72334936 24.36971175 121.37058371 24.34973192 129.01790392 C24.30820873 144.71524206 24.23501682 160.41221086 24.1484375 176.109375 C6.9884375 176.109375 -10.1715625 176.109375 -27.8515625 176.109375 C-27.8609082 172.36988525 -27.87025391 168.63039551 -27.87988281 164.77758789 C-27.91367377 152.41220701 -27.96903455 140.04700125 -28.03546524 127.68175602 C-28.07521085 120.18586448 -28.10762598 112.69007723 -28.12255859 105.1940918 C-28.13559846 98.657705 -28.16262223 92.12154813 -28.20617557 85.58529085 C-28.22873838 82.12693822 -28.24447633 78.66886862 -28.24344635 75.21043587 C-28.24255703 71.3419593 -28.27289933 67.47405763 -28.30566406 63.60571289 C-28.3006337 62.46922806 -28.29560333 61.33274323 -28.29042053 60.16181946 C-28.41512568 50.62356826 -30.84478257 43.59997201 -37.34765625 36.54296875 C-43.67544908 30.51102078 -51.38481043 29.70095925 -59.73632812 29.74584961 C-68.6567739 29.97581069 -75.55780592 32.80428038 -82.03515625 38.94140625 C-90.84966338 49.46194702 -93.30316371 63.33237221 -93.28393555 76.66113281 C-93.2941272 77.74553146 -93.30431885 78.82993011 -93.31481934 79.94718933 C-93.34470363 83.48568045 -93.3541776 87.0238998 -93.36328125 90.5625 C-93.38014614 93.03400556 -93.39829879 95.50550263 -93.41767883 97.97698975 C-93.46498813 104.44754383 -93.49492072 110.91806351 -93.52111816 117.38873291 C-93.55628761 125.17087005 -93.61324578 132.95287889 -93.66651154 140.73490906 C-93.74480152 152.52638047 -93.79557705 164.31768165 -93.8515625 176.109375 C-110.3515625 176.109375 -126.8515625 176.109375 -143.8515625 176.109375 C-143.8515625 116.049375 -143.8515625 55.989375 -143.8515625 -5.890625 C-127.3515625 -5.890625 -110.8515625 -5.890625 -93.8515625 -5.890625 C-93.3565625 5.494375 -93.3565625 5.494375 -92.8515625 17.109375 C-91.6965625 15.43875 -90.5415625 13.768125 -89.3515625 12.046875 C-80.70301338 0.27398091 -69.67194182 -6.22103954 -55.3359375 -9.42578125 C-36.72739773 -11.90831066 -15.93941711 -10.56805189 0 0 Z " fill="#929292" transform="translate(1281.8515625,198.890625)"/>
<path d="M0 0 C0.64195312 0.51691406 1.28390625 1.03382813 1.9453125 1.56640625 C2.62851562 2.11425781 3.31171875 2.66210938 4.015625 3.2265625 C12.73655599 11.03560907 17.99477759 23.14184464 19.9453125 34.56640625 C19.96143335 36.23299495 19.96349324 37.89983875 19.9453125 39.56640625 C4.3490292 43.05687475 -11.17281443 45.76714777 -27.0546875 47.56640625 C-27.20164062 46.73238281 -27.34859375 45.89835938 -27.5 45.0390625 C-28.98025032 37.61228935 -30.56694339 31.04274133 -36.0546875 25.56640625 C-45.98067537 19.0431662 -56.50250757 18.60525231 -68.0546875 19.56640625 C-74.97037344 21.02982226 -79.12621586 23.73706124 -83.0546875 29.56640625 C-84.67253508 32.80210141 -84.48033834 36.05955154 -84.0546875 39.56640625 C-82.2300418 44.45977428 -80.43841097 46.69164009 -75.8671875 49.19140625 C-65.56878239 53.76681923 -54.55141755 56.26659866 -43.59399414 58.69750977 C-21.24284442 63.65810072 3.48780434 69.38554133 17.70703125 88.99609375 C18.94782779 91.14978864 19.99014256 93.27315683 20.9453125 95.56640625 C21.24824219 96.27925781 21.55117188 96.99210938 21.86328125 97.7265625 C26.88481115 110.33932541 26.52419022 126.39487996 21.60546875 139 C14.20473419 155.17713507 2.6788051 162.50704771 -13.26953125 168.84375 C-42.21215625 178.71478684 -78.56319541 177.87441068 -106.3046875 164.75390625 C-121.36699409 156.82637646 -130.8088698 145.21343849 -137.0546875 129.56640625 C-138.50710715 124.78302418 -139.0546875 120.5551571 -139.0546875 115.56640625 C-130.95219437 113.72763032 -122.77090352 112.68529903 -114.53076172 111.70654297 C-112.2945282 111.44019623 -110.05938068 111.16580457 -107.82421875 110.890625 C-106.38547431 110.71696963 -104.94667404 110.54377617 -103.5078125 110.37109375 C-102.22036133 110.21624512 -100.93291016 110.06139648 -99.60644531 109.90185547 C-96.39367441 109.5984222 -93.27868721 109.50242321 -90.0546875 109.56640625 C-89.96832031 110.17226563 -89.88195312 110.778125 -89.79296875 111.40234375 C-88.28842656 120.37438433 -85.41944203 128.64508365 -78.0234375 134.38671875 C-74.57629318 136.45226951 -70.91246218 137.5271995 -67.0546875 138.56640625 C-66.0646875 138.89640625 -65.0746875 139.22640625 -64.0546875 139.56640625 C-52.328682 140.66208275 -39.65685671 140.68645585 -29.9921875 133.19140625 C-26.25032193 128.12178193 -24.36697673 124.06866793 -24.6640625 117.734375 C-25.34653867 113.94663228 -27.08863035 111.8099876 -30.0546875 109.56640625 C-38.60769604 104.3114292 -47.48787617 101.87895972 -57.14743042 99.66790771 C-61.1464792 98.74862564 -65.1316126 97.77266412 -69.1171875 96.796875 C-69.89690414 96.60651672 -70.67662079 96.41615845 -71.47996521 96.22003174 C-92.51970582 91.03447443 -113.68869146 84.25519103 -126.80859375 65.74609375 C-133.66085131 53.76001312 -134.87007099 39.45259103 -132.40625 26.03515625 C-128.13812927 12.17288379 -119.32175148 1.47542716 -106.76513672 -5.65161133 C-75.77633742 -21.96414615 -28.80657911 -20.9751327 0 0 Z " fill="#929292" transform="translate(644.0546875,839.43359375)"/>
<path d="M0 0 C1.26129436 1.11232259 2.51260088 2.23615479 3.75 3.375 C4.33265625 3.808125 4.9153125 4.24125 5.515625 4.6875 C19.86907761 15.54957225 26.45581249 34.51400001 29.75 51.375 C24.5408489 52.36018315 19.33046813 53.33849358 14.11889648 54.31079102 C12.3506494 54.64164304 10.5827362 54.9742852 8.81518555 55.30883789 C-10.02081595 58.87154216 -10.02081595 58.87154216 -19.25 59.375 C-19.46914062 58.40820312 -19.68828125 57.44140625 -19.9140625 56.4453125 C-22.71489197 44.69755691 -26.63205049 34.23758855 -37.25 27.375 C-46.33162199 22.87437317 -58.03263276 23.00074315 -67.6875 25.5 C-75.51498614 28.30853323 -80.53694026 32.65650536 -84.2265625 40.09765625 C-84.56429688 40.84917969 -84.90203125 41.60070312 -85.25 42.375 C-85.54648438 43.01308594 -85.84296875 43.65117187 -86.1484375 44.30859375 C-90.67233967 55.08085585 -90.62384338 66.94775366 -90.5625 78.4375 C-90.56034485 79.16222504 -90.5581897 79.88695007 -90.55596924 80.63363647 C-90.5507326 105.97517239 -90.5507326 105.97517239 -79.69140625 128.29296875 C-72.01959575 135.74400773 -62.03758095 136.9656588 -51.81982422 136.84765625 C-45.67987784 136.60906066 -40.56732972 135.60630037 -35.25 132.375 C-34.6209375 132.00890625 -33.991875 131.6428125 -33.34375 131.265625 C-25.66984317 125.81311225 -21.95039236 115.01625555 -19.25 106.375 C-2.48105285 106.88702892 14.12577497 109.25854775 30.75 111.375 C30.15477693 113.89395068 29.55063956 116.41021488 28.94140625 118.92578125 C28.7762854 119.62868286 28.61116455 120.33158447 28.44104004 121.05578613 C23.73600434 140.3258792 11.30623868 154.23192504 -5.25 164.375 C-11.34678746 167.78404876 -17.81258169 169.98992984 -24.4375 172.125 C-25.09089355 172.33616455 -25.74428711 172.5473291 -26.41748047 172.76489258 C-35.53571128 175.56193113 -44.52937268 175.55747313 -54 175.5625 C-55.19882813 175.57474609 -56.39765625 175.58699219 -57.6328125 175.59960938 C-82.03097389 175.6393027 -105.710584 167.71223253 -123.25 150.375 C-145.7435489 125.3107598 -147.66384306 94.38788231 -146.25 62.375 C-145.67237155 56.12430589 -144.34842549 50.28312978 -142.25 44.375 C-142.01394043 43.69920898 -141.77788086 43.02341797 -141.53466797 42.32714844 C-133.36203944 19.82739097 -117.42301983 3.14792349 -95.828125 -7.0546875 C-67.26085741 -19.59185079 -25.66486439 -19.70851361 0 0 Z " fill="#929292" transform="translate(1471.25,203.625)"/>
<path d="M0 0 C0.95708359 0.00222061 1.91416718 0.00444122 2.9002533 0.00672913 C3.98129837 0.00680466 5.06234344 0.00688019 6.17614746 0.00695801 C7.94018166 0.01469994 7.94018166 0.01469994 9.73985291 0.02259827 C10.93702438 0.02401321 12.13419586 0.02542816 13.36764526 0.02688599 C17.20918732 0.03250472 21.05067208 0.04506041 24.89219666 0.05775452 C27.48920102 0.0627671 30.0862063 0.06733043 32.68321228 0.07142639 C39.06539344 0.08248024 45.44754096 0.0992366 51.82969666 0.12025452 C49.50525908 7.93912036 47.03564581 15.69456768 44.45469666 23.43275452 C44.24304871 24.06809113 44.03140076 24.70342773 43.81333923 25.35801697 C38.77893922 40.45029893 33.47275101 55.44591975 28.17883301 70.44859314 C21.87229852 88.33295247 15.76247001 106.27928133 9.80528259 124.28285217 C5.75109901 136.47234627 1.49054885 148.58773564 -2.7926178 160.69837952 C-3.06105499 161.45781357 -3.32949219 162.21724762 -3.60606384 162.99969482 C-4.10439128 164.4085449 -4.60352046 165.81711181 -5.10368347 167.22531128 C-6.85521458 172.17254587 -8.50983549 177.13885095 -10.17030334 182.12025452 C-29.31030334 182.12025452 -48.45030334 182.12025452 -68.17030334 182.12025452 C-70.56768085 176.12681075 -72.92339066 170.18689679 -75.05311584 164.10462952 C-75.30870773 163.37941605 -75.56429962 162.65420258 -75.82763672 161.90701294 C-76.65277102 159.56232345 -77.47428618 157.21638855 -78.29530334 154.87025452 C-78.72382095 153.64923538 -78.72382095 153.64923538 -79.16099548 152.40354919 C-83.3696785 140.40696713 -87.44872529 128.37465121 -91.43055725 116.30091858 C-94.79704618 106.13501686 -98.35223196 96.04247499 -101.94108582 85.95341492 C-105.88918102 74.84660458 -109.67611182 63.6984253 -113.36146545 52.50111389 C-115.64174941 45.60648391 -117.99072047 38.74335789 -120.42420959 31.90150452 C-120.69969635 31.12645569 -120.97518311 30.35140686 -121.25901794 29.5528717 C-122.60602962 25.76895433 -123.96059778 21.98792287 -125.32460022 18.21009827 C-125.81622493 16.83643193 -126.3077656 15.46273551 -126.79920959 14.08900452 C-127.44998474 12.28592834 -127.44998474 12.28592834 -128.11390686 10.44642639 C-129.17030334 7.12025452 -129.17030334 7.12025452 -130.17030334 1.12025452 C-112.02030334 1.12025452 -93.87030334 1.12025452 -75.17030334 1.12025452 C-71.15979477 15.44349941 -67.21782731 29.71322237 -63.50233459 44.10462952 C-62.22392935 48.98761501 -60.75267314 53.79166129 -59.22108459 58.60072327 C-57.80436843 63.34593242 -56.58722809 68.13612619 -55.35780334 72.93275452 C-52.99628742 82.13715365 -50.41770739 91.25915505 -47.71937561 100.37001038 C-45.56302609 107.68182566 -43.56240194 115.02336268 -41.67982483 122.41029358 C-40.70212699 126.36325512 -40.70212699 126.36325512 -39.17030334 130.12025452 C-36.415102 120.35513826 -33.75750379 110.5726365 -31.23280334 100.74525452 C-29.16662339 92.72929666 -26.91772908 84.79647751 -24.48866272 76.88368225 C-22.41232693 70.06517256 -20.55721066 63.19748576 -18.73280334 56.30775452 C-16.24532291 46.92376383 -13.54960875 37.63078296 -10.66810608 28.36073303 C-8.46335684 21.2215151 -6.49867544 14.03917973 -4.67958069 6.79237366 C-3.00145193 0.1663077 -3.00145193 0.1663077 0 0 Z " fill="#929292" transform="translate(1003.1703033447266,827.8797454833984)"/>
<path d="M0 0 C16.5 0 33 0 50 0 C50 16.5 50 33 50 50 C62.21 50 74.42 50 87 50 C87 63.53 87 77.06 87 91 C74.79 91 62.58 91 50 91 C50.08545952 102.66557224 50.17918782 114.33099722 50.28752708 125.99637985 C50.33750014 131.41292503 50.38383019 136.82945061 50.421875 142.24609375 C50.45871491 147.47220039 50.50507152 152.69814346 50.55806351 157.92411041 C50.57661431 159.91919336 50.59171972 161.91431139 50.60334396 163.90944672 C50.62019456 166.70119524 50.64922691 169.49256857 50.68115234 172.28417969 C50.68331253 173.11136505 50.68547272 173.93855042 50.68769836 174.790802 C50.70980785 180.22793388 50.70980785 180.22793388 53 185 C57.25333424 187.70864606 60.49688157 188.36433026 65.4921875 188.29296875 C66.5735498 188.28547607 67.65491211 188.2779834 68.76904297 188.27026367 C70.12400879 188.24295166 71.47897461 188.21563965 72.875 188.1875 C77.20625 188.125625 81.5375 188.06375 86 188 C86 202.19 86 216.38 86 231 C80.14191538 232.46452116 76.40489496 233.25498701 70.640625 233.265625 C69.97013123 233.26753845 69.29963745 233.2694519 68.60882568 233.27142334 C67.20047629 233.27277347 65.79211395 233.26915976 64.38378906 233.26074219 C62.26858374 233.25009356 60.1542408 233.2606421 58.0390625 233.2734375 C41.72056987 233.29231552 26.08192454 231.07373209 13.5 219.75 C2.98298614 208.18128475 -0.1735791 197.35305528 -0.11352539 181.84204102 C-0.11367142 180.84615463 -0.11381744 179.85026825 -0.1139679 178.82420349 C-0.11327433 175.55074849 -0.10550805 172.27735124 -0.09765625 169.00390625 C-0.09579009 166.72704601 -0.09436712 164.45018537 -0.09336853 162.17332458 C-0.08955892 156.19421267 -0.07974195 150.21512523 -0.06866455 144.23602295 C-0.05841694 138.12935721 -0.05386374 132.0226875 -0.04882812 125.91601562 C-0.03811826 113.94399796 -0.02053409 101.97200485 0 90 C-8.58 90 -17.16 90 -26 90 C-26 77.13 -26 64.26 -26 51 C-17.42 51 -8.84 51 0 51 C0 34.17 0 17.34 0 0 Z " fill="#929292" transform="translate(699,778)"/>
<path d="M0 0 C16.83 0 33.66 0 51 0 C51 83.82 51 167.64 51 254 C34.17 254 17.34 254 0 254 C0 170.18 0 86.36 0 0 Z " fill="#929292" transform="translate(1249,756)"/>
<path d="M0 0 C16.5 0 33 0 50 0 C50 83.82 50 167.64 50 254 C33.5 254 17 254 0 254 C0 170.18 0 86.36 0 0 Z " fill="#929292" transform="translate(411,439)"/>
<path d="M0 0 C16.83 0 33.66 0 51 0 C51 60.06 51 120.12 51 182 C34.17 182 17.34 182 0 182 C0 121.94 0 61.88 0 0 Z " fill="#929292" transform="translate(806,828)"/>
<path d="M0 0 C16.83 0 33.66 0 51 0 C51 59.73 51 119.46 51 181 C34.17 181 17.34 181 0 181 C0 121.27 0 61.54 0 0 Z " fill="#929292" transform="translate(335,512)"/>
<path d="M0 0 C1.32837891 -0.0299707 1.32837891 -0.0299707 2.68359375 -0.06054688 C11.66669772 -0.05395135 19.88431066 3.28411184 26.5 9.4375 C38.31922259 22.50543653 38.67927468 41.63815694 38.6875 58.1875 C38.69974609 59.46882813 38.71199219 60.75015625 38.72460938 62.0703125 C38.74962892 78.51649373 36.46830946 94.46090852 25.5 107.4375 C17.76468816 114.63607591 10.49770834 116.94586339 0.125 116.8125 C-0.76960937 116.82410156 -1.66421875 116.83570313 -2.5859375 116.84765625 C-12.64863502 116.80377821 -20.83571512 114.10178488 -28.0625 106.875 C-42.10276155 88.4556215 -40.30999604 58.36957454 -37.75 36.5625 C-35.80478317 23.72947231 -31.89705275 13.01760528 -21.49291992 4.78393555 C-15.00250779 0.39895173 -7.61082921 -0.06093095 0 0 Z " fill="#FFFFFF" transform="translate(831.5,225.5625)"/>




<path d="M0 0 C16.83 0 33.66 0 51 0 C51 17.49 51 34.98 51 53 C34.17 53 17.34 53 0 53 C0 35.51 0 18.02 0 0 Z " fill="#929292" transform="translate(335,439)"/>
<path d="M0 0 C16.83 0 33.66 0 51 0 C51 17.16 51 34.32 51 52 C34.17 52 17.34 52 0 52 C0 34.84 0 17.68 0 0 Z " fill="#929292" transform="translate(806,756)"/>
<path d="M0 0 C0.79512314 29.80239332 0.79512314 29.80239332 -9 41 C-14.44690211 46.33939747 -20.78681473 48.81588334 -28 51 C-28.61101562 51.19335938 -29.22203125 51.38671875 -29.8515625 51.5859375 C-39.0411487 53.35702139 -49.96962232 53.14322814 -58 48 C-61.7691631 44.65162233 -64.70401055 40.5101443 -65.30078125 35.44921875 C-65.33230503 28.02011419 -64.62832843 23.34514527 -59.9375 17.375 C-52.82851977 11.62731386 -44.83383991 9.11631429 -35.99609375 7.32421875 C-34.99159683 7.10933304 -33.98709991 6.89444733 -32.9521637 6.67304993 C-29.78316295 5.99836602 -26.61056469 5.34277273 -23.4375 4.6875 C-21.27512932 4.22974825 -19.11301689 3.77077479 -16.95117188 3.31054688 C-13.0281159 2.47922292 -9.10430144 1.65204046 -5.17749023 0.83862305 C-4.39268784 0.67605515 -3.60788544 0.51348724 -2.79930115 0.34599304 C-1 0 -1 0 0 0 Z " fill="#FFFFFF" transform="translate(1171,926)"/>
<path d="M0 0 C0.96353925 28.00563883 0.96353925 28.00563883 -8.2578125 39.22265625 C-16.71158675 47.84702235 -27.88967542 51.16416587 -39.75 51.4375 C-47.79477799 51.19698602 -55.2525733 50.07585109 -61 44 C-65.27863967 38.06057257 -65.87072552 32.16419728 -65 25 C-63.1832662 19.09561514 -59.0385907 15.3474775 -54 12 C-44.72635954 8.30047313 -34.64088193 6.41331813 -24.91308594 4.28027344 C-22.47406748 3.74430135 -20.0378081 3.19686064 -17.6015625 2.6484375 C-16.03660902 2.30140313 -14.47150994 1.95502449 -12.90625 1.609375 C-12.18538208 1.44693298 -11.46451416 1.28449097 -10.72180176 1.11712646 C-7.08812443 0.32840207 -3.72084845 -0.18658588 0 0 Z " fill="#FFFFFF" transform="translate(1059,292)"/>
<path d="M0 0 C1.06387939 0.00354492 2.12775879 0.00708984 3.22387695 0.01074219 C13.71093209 0.23252038 21.20650503 2.50794228 29.25 9.5 C36.19546373 17.60576472 39.25 26.95123691 39.25 37.5 C13.18 37.5 -12.89 37.5 -39.75 37.5 C-39.75 26.13589992 -36.83127711 17.66081724 -28.75 9.5 C-19.85252698 2.18678926 -11.32455399 -0.0673395 0 0 Z " fill="#FFFFFF" transform="translate(1604.75,224.5)"/>
<path d="M0 0 C7.56592436 6.23802743 10.58960422 13.63592202 12.625 23.1875 C12.625 25.4975 12.625 27.8075 12.625 30.1875 C-13.445 30.1875 -39.515 30.1875 -66.375 30.1875 C-65.28298757 19.26737565 -63.34660334 10.12623075 -55.375 2.1875 C-39.88435544 -9.83969264 -16.38570804 -11.2557442 0 0 Z " fill="#FFFFFF" transform="translate(429.375,866.8125)"/>
</svg>
