<svg xmlns="http://www.w3.org/2000/svg" width="1760" height="1683" viewBox="0 0 1760 1683" fill="none">
  <path d="M880.178 0C394.317 0 0 392.618 0 876.823C0 1361.38 393.961 1754 879.822 1754C1366.04 1754 1760 1361.38 1760 877.177C1760.36 392.973 1366.4 0 880.178 0ZM810.362 167.555C1168.7 135.251 1496.05 353.924 1584.75 720.272C1502.11 850.198 1397.74 965.215 1269.86 1052.19C1006.63 1231.46 716.325 290.381 483.368 521.834L175.608 827.479C182.732 461.131 473.75 197.729 810.362 167.555ZM876.26 1590C566.719 1588.58 276.77 1383.75 200.542 1077.75L465.558 820.734C500.109 787.01 546.772 773.876 587.379 780.62C622.643 786.655 651.139 818.249 680.704 855.878L1005.56 1268.73C1077.16 1359.61 1192.57 1389.43 1304.06 1307.07C1391.69 1242.11 1436.57 1134.54 1553.4 1098.34C1469.69 1402.92 1173.69 1591.42 876.26 1590.35V1590Z" fill="#FFFFFF" fill-opacity="0.1"/>
</svg>
