<svg xmlns:xlink="http://www.w3.org/1999/xlink" xmlns="http://www.w3.org/2000/svg" fill="none" viewBox="0 0 403 325" width="403"  height="325" ><path fill="#929292" d="M327.99 54.447c-14.152 0-34.721 1.822-57.492 6.777-25.716 5.6-49.569 8.206-66.726 8.206-25.118 0-48.689-4.185-71.421-8.496V7.28c23.622 4.752 46.816 9.309 71.421 9.309 14.151 0 34.72-2.255 57.491-7.21 25.717-5.6 49.569-7.773 66.727-7.773 26.306 0 50.916 4.077 74.64 8.686v53.69c-24.738-5.06-48.919-9.534-74.64-9.534Zm-57.492 93.406c22.771-4.955 43.34-6.777 57.492-6.777 25.721 0 49.902 4.474 74.64 9.533v-53.69c-23.724-4.608-48.334-8.685-74.64-8.685-17.158 0-41.01 2.173-66.727 7.773-22.771 4.955-43.34 7.21-57.491 7.21-24.605 0-47.799-4.558-71.421-9.31v53.656c22.732 4.31 46.303 8.495 71.421 8.495 17.157 0 41.01-2.605 66.726-8.205Zm0 86.632c22.771-4.955 43.34-6.777 57.492-6.777 25.721 0 49.902 4.475 74.64 9.534v-53.69c-23.724-4.609-48.334-8.685-74.64-8.685-17.158 0-41.01 2.172-66.727 7.772-22.771 4.955-43.34 7.21-57.491 7.21-24.605 0-47.799-4.557-71.421-9.309v53.655c22.732 4.311 46.303 8.496 71.421 8.496 17.157 0 41.01-2.606 66.726-8.206Z" class="flag"></path><g class="dnc" fill="#929292"><path d="M57.008.014H4.173v95.992h52.835c30.696 0 49.334-17.143 49.334-47.996S87.7.014 57.008.014ZM76.633 48.01c0 17.143-8.55 24.137-22.846 24.137h-20.18v-48.41h20.18c14.297 0 22.846 7.13 22.846 24.273Z" class="letter one" fill="#929292"></path><path d="M33.697 114.397H4.173v95.996h27.084v-55.815h.405l41.711 55.815h28.575v-95.996H74.865v54.443h-.405l-40.763-54.443Z" class="letter two" fill="#929292"></path><path d="M0 275.186c0-29.318 22.794-50.587 61.138-50.587 17.814 0 31.097 4.908 40.155 10.226v27.715h-.302c-11.925-7.092-21.534-11.036-36.481-11.036-19.173 0-31.27 7.864-31.27 23.408s11.795 23.134 31.119 23.134c15.098 0 25.16-3.259 36.632-11.035h.302v28.125c-8.002 4.638-22.643 9.82-41.362 9.82C20.379 324.956 0 304.23 0 275.186Z" class="letter three" fill="#929292"></path></g><g class="year" fill="#929292"><path d="M178.657 280.447c0-4.937-1.883-9.091-5.443-12.017-3.729-3.06-9.214-4.676-15.865-4.676-8.109 0-15.55 2.669-22.132 7.934v12.068c7.641-6.36 14.831-9.454 21.967-9.454 5.672 0 8.925 2.597 8.925 7.126 0 5.076-4.308 8.262-13.748 15.241-.62.459-1.262.934-1.93 1.431l-17.694 13.128v10.796h45.92v-10.552h-29.344l.421-.303 10.073-7.286.459-.334c12.624-9.201 18.387-13.402 18.387-23.102h.004Z" class="number one" fill="#929292"></path><path d="M207.271 272.492c4.997-5.72 12.523-8.742 21.763-8.742 9.381 0 16.673 2.887 21.682 8.578 4.521 5.139 6.91 12.652 6.91 21.05 0 8.397-2.598 15.931-7.318 21.213-5.111 5.72-12.059 8.742-21.439 8.742-9.381 0-16.673-2.887-21.678-8.578-4.525-5.143-6.914-12.408-6.914-21.049s2.419-15.978 6.994-21.214Zm9.406 35.201c2.883 3.379 7.042 5.092 12.362 5.092v.005c10.63 0 16.481-6.806 16.481-19.16 0-6.099-1.446-10.889-4.299-14.231-2.883-3.38-7.041-5.093-12.361-5.093-10.631 0-16.482 6.806-16.482 19.16 0 6.095 1.446 10.885 4.299 14.227Z" class="number two" fill="#929292"></path><path d="M325.165 280.447c0-4.937-1.879-9.091-5.442-12.017-3.725-3.059-9.211-4.676-15.861-4.676-8.109 0-15.555 2.669-22.133 7.934v12.068c7.645-6.36 14.836-9.454 21.967-9.454 5.672 0 8.925 2.597 8.925 7.126 0 5.076-4.307 8.262-13.747 15.241l-.494.364-.016.013-.004.002-.012.009-1.409 1.043-17.693 13.128v10.796h45.919v-10.552h-29.344l.421-.303 10.529-7.609c12.634-9.207 18.399-13.408 18.399-23.113h-.005Z" class="number three" fill="#929292"></path><path d="M391.799 299.27v-34.215h-23.03l-21.98 35.242v9.037h33.618v12.686h11.392v-12.69h10.248l.404-10.06h-10.652Zm-11.392.009h-20.381l.158-.257 14.372-23.327.051-.08h5.8v23.664Z" class="number four" fill="#929292"></path></g></svg>