<?xml version="1.0" encoding="utf-8"?>
<!-- Generator: Adobe Illustrator 26.5.0, SVG Export Plug-In . SVG Version: 6.00 Build 0)  -->
<svg version="1.0" id="katman_1" xmlns="http://www.w3.org/2000/svg" xmlns:xlink="http://www.w3.org/1999/xlink" x="0px" y="0px"
	 viewBox="107 255 973 330" style="enable-background:new 0 0 1190.55 841.89;" xml:space="preserve">
<g fill="#929292">
	<g>
		<path d="M277.06,282.8c-5.4,7-8.4,15.61-8.4,24.41c0,3,0,74.03,0,76.63c-0.4,5.8-2.6,11.2-6.2,15.81c-2,2-13.81,12.6-14.81,13.81
			l6.6,0.2c2.2-2,25.01-22.21,27.21-25.01c6.6-7.2,10.4-16.61,10.4-26.41c0-3.2,0-70.62,0-73.63c-0.2-7.4,2.6-14.81,7.8-20.21
			c2.8-3,11.6-10.4,13.2-12.2l-7-0.2C304.47,257.79,279.46,280.4,277.06,282.8z"/>
		<path d="M220.85,561.49l27.81,24.21h18.61c17.81,0,35.01-7,47.62-19.61c11.4-11.4,15.61-26.81,15.61-41.21v-39.81
			c-0.2-9-4-17.61-10.8-23.61c-1.2-1.2-9.4-9-9.4-9v30.61c0,0,9,9.2,10.6,11c8.2,8.8,8.2,24.81-18.01,50.22
			c-4.6,4.4-17.61,16.81-35.61,16.81L220.85,561.49z"/>
		<path d="M298.27,398.04c-3,3.2-6,11.2-6,18.41v15h15.21c6,0,13.81-5.4,15.41-8.2c0-0.2,0-15,0-15c2.2,3.2,5,6.2,8.2,8.6
			c1.6-2,15.61-18.81,27.21-19.01c19.41-0.2,15.01,24.41,7.2,32.21c-2.6,2.6-14,13-17.61,16.41c-9.2,8.8-25.01,4.6-25.01-18.01
			c0,0-16.81,16.01-19.41,18.21c-2.6,2.2-11.2,11.4-11.2,11.4v39.81c0,19.01-6.2,25.41-11.4,31.21c-2,2.2-23.41,21.81-26.41,24.01
			l-7,0.2c0,0,12.6-11.4,15-14c2.8-3,6.2-9,6.2-19.01c0-2.6-0.4-62.42-0.4-62.42h-97.63c-34.01,0-41.21-37.61-41.41-47.82
			c0-3,0-33.01,0-37.81c0-6.2-4-16.61-10.2-19.81h9.6c1.2,0.4,7.2,2.8,7.2,26.01c0,0-0.4,26.81-0.4,28.41
			c0,11.8,9.4,25.21,22.81,25.21l110.44-0.2c0-3,3-14.2,8.4-20.21c3-3.4,26.81-25.01,29.41-27.21h7c-1,1-12.6,11.2-15.01,14
			L298.27,398.04z M334.48,420.65c2.8,3.8,6,7.6,9.4,11c12,9.6,17.61-0.8,9.6-11.6C350.29,415.64,338.08,416.84,334.48,420.65z"/>
		<path d="M216.03,491.87c0,5.4-17.01,19.61-18.01,20.41c-1.2-5.8-5.6-12-18.21-24.81l18.61-18.61
			C211.03,481.47,216.03,484.27,216.03,491.87L216.03,491.87z"/>
		<path d="M248.45,278c3.8,3.8,11.8,13.8,7,18.81c-4.2,4.2-10.8,11-10.8,11c-0.4-2.4-6.6-8.4-6.6-8.4s0,18.01,0,20.21
			c-0.2,8.2-3.2,10.4-3.2,10.4s15.01,14.81,15.01,34.01c0,9.2,0,17.81,0,19.61c0.2,3.6-1.2,7.4-3.8,10
			c-1.4,1.6-15.21,15.6-17.41,17.41c-3.2,2.8-7.2,4.4-11.4,4.2h-51.82c-8.2,0-16.61-6.4-16.61-12.8c0-1.6,0.2-19.21,0.2-19.21
			c2.6,3,5.4,6.6,11.8,6.6c5.2,0,10.4-4,11.8-5.6s39.21-40.81,39.21-40.81s-17.61-16.41-29.21-24.21c-5.6-3.8-13.2,1-14.4,6
			c-3.6,15.61,0,39.21,0,39.21l-14.2-14.2c-5.8-5.8-5.6-18.81,1.4-25.61c1-1.2,11.6-12.8,24.81-12.8h20.61
			c13.8,0,29.01,13.8,29.01,13.8c1.2-1.4,2-3,2.2-4.8c0-7.2-0.2-26.21-0.2-26.21c-10.4-10.4-11.8-21.21-6.8-26.21
			c9.4-9.4,12.8-12.6,12.8-12.6S237.45,267.19,248.45,278L248.45,278z M183.43,382.03c-5.2,5.4-6,6.6-10.8,9.6h58.42
			c15.81,0,12.6-9.8,9.8-14.81c-5.8-10.2-24.21-29.01-24.21-29.01S184.43,381.03,183.43,382.03L183.43,382.03z"/>
		<path d="M116.81,435.25h-9.6c0,0,10.2,5.6,10.2,20.21v46.62c0,30.21,25.01,58.22,55.42,58.22h25.41c15.21,0,20.61-3.6,29.81-11.8
			c3.4-3,7.8-8,9.4-9.8c5.2-6,11-10.8,11-26.41v-15.21c0-13.2-7.6-18.61-11.4-22.41c-2.4-2.4-8.8-8.6-8.8-8.6v31.21
			c0,0,6.4,6.8,9.2,9c13.2,10.4,2.8,28.41-9.6,28.41c-2.4,0-52.22,0-55.82,0c-20.41,0.4-48.22-17.81-48.22-48.62v-25.21
			C124.01,435.25,116.81,435.25,116.81,435.25L116.81,435.25z"/>
		<path d="M178.02,492.07c0,5.4-17.01,19.61-18.01,20.41c-1.2-5.8-5.6-12-18.21-24.81l18.61-18.61
			C172.82,481.47,178.02,484.27,178.02,492.07L178.02,492.07z"/>
		<path d="M494.2,477.49h-30.01c-9.4,0-8.6-7.8-9.6-14.4v-42.81c0,0,6.6-0.2,14-0.2c8.2,0,18.61-1.2,28.61,4.4
			c-5.2-11-16.41-17.81-28.61-17.41h-13.8v-13.8c0,0,0-12-3-15.41h19.81c17.01,0,30.21-0.2,44.02,8.8c0,0-2.6-22.61-35.61-22.61
			h-64.42c0,0,11.2,9.6,10.8,29.01l0.4,78.03c0,19.61,7.8,20.21,7.8,20.21h63.42c14.41,0,19.41-10.2,19.41-15.81l0.2-7.4
			C517.61,468.09,513.01,477.49,494.2,477.49L494.2,477.49z"/>
		<path d="M663.05,470.88v-54.62c0-21.21-17.21-26.81-30.21-26.81c-17.01,0-22.21,14.2-24.41,19.21
			c-3.8-13.2-17.21-19.21-28.01-19.21c-20.61,0-25.81,19.61-25.81,19.61s-0.4-19.01-17.01-19.01H521.4c0,0,9.4,3.8,9.4,20.21v60.62
			c0,20.01,8,20.41,8,20.41h26.81c-6.4-4.8-10.2-12.4-10.2-20.61v-53.82c0.4-2.4,4.4-10.4,15.81-10.4c6.6,0,13.81,6.8,13.6,14.41
			v50.02c0,20.21,8,20.41,8,20.41h26.81c-6.4-5-10.2-12.4-10.2-20.61v-53.82c2.6-7.8,11-12.2,19.01-9.6c6,2,10.2,7.4,10.4,13.81
			c0,0,0,45.62,0,49.82c0.2,20.41,8,20.21,8,20.21c14,0,26.81,0,26.81,0C667.05,486.29,663.25,478.89,663.05,470.88z"/>
		<path d="M709.87,470.89c0,8,3.8,15.61,10.2,20.41c0,0-12.8,0-26.81,0c0,0-8.2,0.2-8.2-20.21v-61.02c0-16.01-9.2-20.21-9.2-20.21
			h16.21c5.8,0,17.61,0,17.61,22.61v58.02L709.87,470.89z"/>
		<path d="M792.3,397.66c0,0-2.6-7.2-13.6-7.2c-16.81,0-20.81,20.01-20.81,20.01c-1.4-15.81-5.6-20.41-17.41-20.41h-16.21
			c0,0,9.4,3.8,9.4,20.21v60.62c0,20.01,8,20.41,8,20.41h26.81c-6.4-4.8-10.2-12.4-10.2-20.41v-49.82c0.6-4.2,3-8,6.6-10.2
			c9-6,20.81-4.2,27.81,4L792.3,397.66z"/>
		<path d="M916.94,401.26c5.6,0,11.01,1.4,15.8,4v-15.21h-22.4v-23.21c-4.8,7.6-11.01,14.4-18.01,20.21c-7.6,6.2-23.6,14-23.6,14
			l17,0.2v70.42c0,19.61,8.21,19.61,8.21,19.61c14.6,0,26.61,0,26.61,0c-6.4-4.6-10.2-12-10.41-19.81v-70.22
			C917.34,401.26,912.54,401.26,916.94,401.26L916.94,401.26z"/>
		<path d="M998.16,431.87c-15.01,15.61-26.81,13.2-36.21,24.81c0,0,1.6,15.61,13.4,21.01c4,1.8,20.61,7.8,31.21-10.6v16.41
			c0,0-6.8,8-28.61,8c-26.2,0-44.21-20.61-44.21-48.62c0-27.61,14.6-53.02,42.42-53.22C1003.16,389.26,1017.97,411.27,998.16,431.87
			z M981.76,425.47c4.4-8.2,8-29.01-7.21-27.81c-17.61,1.4-14.2,48.02-14.2,48.02C966.15,439.28,974.96,437.88,981.76,425.47
			L981.76,425.47z"/>
		<path d="M697.47,381.85c6.8-0.2,12-5.8,12-12.4c-0.2-6.8-5.8-12-12.4-12c-6.6,0.2-12,5.6-12,12.2
			C685.06,376.45,690.66,381.85,697.47,381.85z"/>
		<path d="M820.11,479.68c-6,0-10.4-6.4-10.4-12.8c0-25.21,20.61-28.81,26.21-35.41v42.61
			C833.31,476.08,830.91,479.68,820.11,479.68L820.11,479.68z M835.91,421.67c-6.2,10.8-54.62,13.2-47.22,50.62
			c3,14.8,12.8,19.21,25.21,19.21c12,0,19.41-6.2,22.41-12.2c1.8,11.2,7.6,12,7.6,12c14.01,0,26.81,0,26.81,0
			c-6.4-4.8-10.4-12.2-10.4-20.21v-57.02c0-13.6-15.01-24.21-31.01-24.21c-9-0.2-17.61,2.4-25.01,7.4v17.61c0,0,5.6-14,19.41-14
			c13.6,0,14.6,6.8,14.6,10.2C838.51,414.66,837.91,418.46,835.91,421.67L835.91,421.67z"/>
		<path d="M1057.39,463.68c0.2,7.2-6.2,16.61-19.81,16.61c-14.01,0-19.61-14.2-19.61-14.2v18.01c7.61,4.8,16.4,7.2,25.41,7.2
			c18.21,0,36.82-13.81,36.41-33.21c-0.2-6.4-2.39-12.6-6.2-17.61c-6.2-8.2-17.4-14-26.21-19.41c-5-3-7.6-8.6-7.6-10.4
			c-0.2-3.4,1.6-10.2,15-10.2c13.21,0,19.01,14,19.01,14v-17.01c-7.4-5.2-16.4-8-25.61-8c-16.01,0-30.61,10.6-30.21,24.21
			c0.2,12,5.2,19.61,15.01,27.01c4.4,3.2,9,6,13.8,8.6C1054.39,453.48,1057.19,458.68,1057.39,463.68L1057.39,463.68z"/>
	</g>
</g>
</svg>
